<svg width="78" height="78" viewBox="0 0 78 78" fill="none" xmlns="http://www.w3.org/2000/svg">
<path d="M71.498 9.37219C73.4129 9.37219 74.9653 7.8198 74.9653 5.90484C74.9653 3.98988 73.4129 2.4375 71.498 2.4375C69.583 2.4375 68.0306 3.98988 68.0306 5.90484C68.0306 7.8198 69.583 9.37219 71.498 9.37219Z" fill="#F44336"/>
<path d="M48.8048 47.7628C48.8048 47.7628 54.6 55.5628 54.6 58.6402C54.6 61.7175 52.1015 64.2159 49.0242 64.2159C46.3978 64.2159 13.5586 64.1489 9.93279 64.1489C6.30701 64.1489 4.25342 66.2756 4.25342 66.2756" stroke="#84B0C1" stroke-width="4.913" stroke-miterlimit="10" stroke-linecap="round"/>
<path d="M35.8495 47.0011C35.8495 47.0011 42.3089 55.5628 42.3089 58.6463C42.3089 61.7297 39.4814 64.2038 36.404 64.2038" stroke="#84B0C1" stroke-width="4.913" stroke-miterlimit="10" stroke-linecap="round"/>
<path d="M50.438 52.8511C49.2131 50.7549 48.2199 49.5361 46.6233 47.3546C46.6233 47.3546 47.0438 47.446 48.1772 47.446C49.3106 47.446 50.1272 47.0864 50.1272 47.0864C51.7359 49.3594 52.2174 49.9383 53.0766 51.4617C53.0766 51.4617 53.0461 52.455 52.2539 52.9791C51.4617 53.5031 50.438 52.8511 50.438 52.8511Z" fill="#2F7889"/>
<path d="M38.1225 52.9547C36.4223 50.3588 35.0634 48.3783 35.0634 48.3783L38.7197 48.4636C38.7197 48.4636 40.3589 50.6635 41.2973 52.4063C41.2973 52.4063 41.4375 53.1985 40.3894 53.6128C39.3412 54.015 38.1225 52.9547 38.1225 52.9547Z" fill="#2F7889"/>
<path d="M48.817 47.9213L6.19736 45.0816C6.05721 45.0694 5.95361 44.9597 5.95361 44.8196V21.0235C5.95361 20.798 6.13033 20.6091 6.3558 20.5969L60.3647 17.16C60.8888 17.1235 61.2666 17.6475 61.0777 18.135L49.6092 47.4216C49.4813 47.7445 49.1644 47.9456 48.817 47.9213V47.9213Z" stroke="#84B0C1" stroke-width="4.913" stroke-miterlimit="10"/>
<path d="M14.4239 20.1459L13.3026 45.3984" stroke="#84B0C1" stroke-width="2.948" stroke-miterlimit="10"/>
<path d="M24.0947 19.4878L20.5908 45.9408" stroke="#84B0C1" stroke-width="2.948" stroke-miterlimit="10"/>
<path d="M33.7716 18.8297L27.8789 46.4831" stroke="#84B0C1" stroke-width="2.948" stroke-miterlimit="10"/>
<path d="M43.4484 18.1716L35.167 47.0255" stroke="#84B0C1" stroke-width="2.948" stroke-miterlimit="10"/>
<path d="M53.1192 17.5134L42.4551 47.5678" stroke="#84B0C1" stroke-width="2.948" stroke-miterlimit="10"/>
<path d="M5.0517 29.5425L57.1898 27.751" stroke="#84B0C1" stroke-width="2.948" stroke-miterlimit="10"/>
<path d="M5.53308 37.8483H53.9175" stroke="#84B0C1" stroke-width="2.948" stroke-miterlimit="10"/>
<path d="M48.9998 75.5625C51.5374 75.5625 53.5945 73.5054 53.5945 70.9679C53.5945 68.4303 51.5374 66.3732 48.9998 66.3732C46.4623 66.3732 44.4052 68.4303 44.4052 70.9679C44.4052 73.5054 46.4623 75.5625 48.9998 75.5625Z" fill="#424242"/>
<path d="M46.0383 64.6425H51.9675L50.5537 70.791C50.4197 71.7478 49.7676 72.4425 49.0059 72.4425C48.2442 72.4425 47.5861 71.7478 47.4581 70.791L46.0383 64.6425Z" fill="#84B0C1"/>
<path d="M49.9505 71.0105C49.8408 71.4127 49.6397 71.8697 49.2314 71.9733C47.7567 72.3511 47.5495 68.7253 48.293 68.1037C48.7439 67.7259 49.6823 67.6589 50.0784 68.1281C50.5842 68.7253 50.1394 70.3462 49.9505 71.0105Z" fill="#A8E3F0"/>
<path d="M49.073 66.818C48.0919 66.818 47.3972 66.2391 47.056 65.8796C47.0328 65.8558 47.017 65.8258 47.0105 65.7932C47.004 65.7606 47.007 65.7268 47.0192 65.6959C47.0315 65.665 47.0524 65.6383 47.0794 65.619C47.1065 65.5997 47.1385 65.5886 47.1717 65.5871C47.8055 65.5566 48.4392 65.5627 49.0669 65.5444C49.7006 65.5627 50.3344 65.5566 50.962 65.5871C51.1083 65.5932 51.1814 65.776 51.0778 65.8796C50.7549 66.2391 50.0541 66.818 49.073 66.818Z" fill="#2F7889"/>
<path d="M47.5556 72.5278C47.9517 72.9848 48.5855 73.1981 49.1888 73.125C49.786 73.0518 50.3344 72.6984 50.6939 72.2109C50.9011 71.9245 51.0474 71.5954 51.285 71.3334C51.5227 71.0714 51.9005 70.8885 52.2296 71.0226C52.6927 71.2054 52.7536 71.8514 52.5952 72.3206C52.4415 72.7893 52.1958 73.2227 51.8725 73.5952C51.5492 73.9677 51.1547 74.2719 50.7122 74.49C50.1089 74.7885 49.268 74.9104 48.5977 74.8434C47.3119 74.7093 45.9286 73.5454 45.4777 72.351C45.2339 71.7112 45.0207 70.4254 46.2942 70.7179C46.8853 70.8581 47.0803 71.9793 47.5556 72.5278Z" fill="#757575"/>
<path d="M60.8278 18.7139L63.637 11.8463C64.7827 9.04316 65.6297 8.4155 67.3299 7.65378L71.3091 6.03894" stroke="#84B0C1" stroke-width="4.913" stroke-miterlimit="10" stroke-linecap="round"/>
<path d="M11.9437 75.5624C14.4813 75.5624 16.5384 73.5053 16.5384 70.9677C16.5384 68.4302 14.4813 66.373 11.9437 66.373C9.40617 66.373 7.34906 68.4302 7.34906 70.9677C7.34906 73.5053 9.40617 75.5624 11.9437 75.5624Z" fill="#424242"/>
<path d="M8.97607 64.6425H14.9053L13.4915 70.791C13.3575 71.7478 12.7055 72.4425 11.9437 72.4425C11.182 72.4425 10.5239 71.7478 10.3959 70.791L8.97607 64.6425Z" fill="#84B0C1"/>
<path d="M12.8944 71.0105C12.7847 71.4127 12.5836 71.8697 12.1753 71.9733C10.7006 72.3511 10.4934 68.7253 11.2369 68.1037C11.6878 67.7259 12.6262 67.6589 13.0223 68.1281C13.5281 68.7253 13.0772 70.3462 12.8944 71.0105Z" fill="#A8E3F0"/>
<path d="M12.0168 66.8179C11.0357 66.8179 10.3411 66.239 9.99981 65.8795C9.97664 65.8556 9.96085 65.8256 9.95433 65.793C9.94782 65.7605 9.95086 65.7267 9.96309 65.6958C9.97533 65.6649 9.99623 65.6382 10.0233 65.6189C10.0503 65.5996 10.0824 65.5885 10.1156 65.587C10.7493 65.5565 11.3831 65.5626 12.0107 65.5443C12.6445 65.5626 13.2782 65.5565 13.9059 65.587C14.0521 65.5931 14.1253 65.7759 14.0217 65.8795C13.6926 66.239 12.9918 66.8179 12.0168 66.8179Z" fill="#2F7889"/>
<path d="M10.4935 72.5278C10.8895 72.9848 11.5233 73.1981 12.1266 73.125C12.7238 73.0518 13.2722 72.6984 13.6317 72.2109C13.8389 71.9245 13.9852 71.5954 14.2228 71.3334C14.4605 71.0714 14.8383 70.8885 15.1674 71.0226C15.6305 71.2054 15.6914 71.8514 15.533 72.3206C15.3793 72.7893 15.1336 73.2227 14.8103 73.5952C14.487 73.9677 14.0925 74.2719 13.65 74.49C13.0467 74.7885 12.2058 74.9104 11.5355 74.8434C10.2497 74.7093 8.86642 73.5454 8.41549 72.351C8.17174 71.7112 7.95845 70.4254 9.23205 70.7179C9.82314 70.8581 10.0181 71.9793 10.4935 72.5278Z" fill="#757575"/>
</svg>
