<svg width="24" height="24" viewBox="0 0 24 24" fill="none" xmlns="http://www.w3.org/2000/svg">
<path d="M10.591 2.51201C11.4946 2.14565 12.5054 2.14565 13.409 2.51201L20.907 5.55201C21.23 5.68283 21.5065 5.90709 21.7013 6.19606C21.896 6.48503 22 6.82556 22 7.17401V16.826C22 17.1745 21.896 17.515 21.7013 17.804C21.5065 18.0929 21.23 18.3172 20.907 18.448L13.409 21.488C12.5054 21.8544 11.4946 21.8544 10.591 21.488L3.093 18.448C2.77003 18.3172 2.49347 18.0929 2.29875 17.804C2.10402 17.515 2 17.1745 2 16.826V7.17501C2 6.82656 2.10402 6.48603 2.29875 6.19706C2.49347 5.90809 2.77003 5.68383 3.093 5.55301L10.591 2.51301V2.51201ZM12.845 3.90201C12.3031 3.68241 11.6969 3.68241 11.155 3.90201L9.241 4.67801L16.768 7.60501L19.437 6.57501L12.845 3.90201ZM14.691 8.40701L7.215 5.49901L4.59 6.56301L12.001 9.44501L14.691 8.40701ZM3.5 16.827C3.50013 16.8767 3.51504 16.9251 3.54282 16.9663C3.5706 17.0074 3.61 17.0393 3.656 17.058L11.155 20.098C11.186 20.111 11.218 20.123 11.25 20.134V10.763L3.5 7.74901V16.827ZM12.845 20.098L20.344 17.058C20.3902 17.0393 20.4297 17.0072 20.4575 16.9659C20.4853 16.9245 20.5001 16.8758 20.5 16.826V7.77201L12.75 10.764V20.134C12.782 20.123 12.814 20.111 12.845 20.098Z" fill="black"/>
</svg>
