<svg width="25" height="26" viewBox="0 0 25 26" fill="none" xmlns="http://www.w3.org/2000/svg">
<path d="M3.125 6.5H5.20833H21.875" stroke="black" stroke-width="2" stroke-linecap="round" stroke-linejoin="round"/>
<path d="M8.33331 6.49953V4.33287C8.33331 3.75823 8.55281 3.20713 8.94351 2.8008C9.33421 2.39447 9.86411 2.1662 10.4166 2.1662H14.5833C15.1358 2.1662 15.6658 2.39447 16.0565 2.8008C16.4472 3.20713 16.6666 3.75823 16.6666 4.33287V6.49953M19.7916 6.49953V21.6662C19.7916 22.2408 19.5722 22.7919 19.1815 23.1983C18.7908 23.6046 18.2608 23.8329 17.7083 23.8329H7.29165C6.73911 23.8329 6.20921 23.6046 5.81851 23.1983C5.42781 22.7919 5.20831 22.2408 5.20831 21.6662V6.49953H19.7916Z" stroke="black" stroke-width="2" stroke-linecap="round" stroke-linejoin="round"/>
<path d="M10.4167 11.9162V18.4162" stroke="black" stroke-width="2" stroke-linecap="round" stroke-linejoin="round"/>
<path d="M14.5833 11.9162V18.4162" stroke="black" stroke-width="2" stroke-linecap="round" stroke-linejoin="round"/>
</svg>
