<svg width="24" height="24" viewBox="0 0 24 24" fill="none" xmlns="http://www.w3.org/2000/svg">
<path d="M13.409 2.51201C12.5054 2.14565 11.4946 2.14565 10.591 2.51201L8.401 3.40001L17.993 7.13001L21.367 5.82701C21.2287 5.71223 21.0736 5.61948 20.907 5.55201L13.409 2.51201ZM22 7.19001L12.75 10.764V21.687C12.974 21.642 13.194 21.575 13.409 21.488L20.907 18.448C21.23 18.3172 21.5065 18.0929 21.7013 17.804C21.896 17.515 22 17.1745 22 16.826V7.19001ZM11.25 21.687V10.764L2 7.19001V16.826C2 17.1745 2.10402 17.515 2.29875 17.804C2.49347 18.0929 2.77003 18.3172 3.093 18.448L10.591 21.488C10.806 21.575 11.026 21.642 11.25 21.688V21.687ZM2.633 5.82701L12 9.44601L15.917 7.93201L6.374 4.22201L3.093 5.55201C2.923 5.62101 2.769 5.71401 2.633 5.82701Z" fill="black"/>
</svg>
